<mxfile host="Electron" modified="2023-09-29T02:45:28.464Z" agent="Mozilla/5.0 (Windows NT 10.0; Win64; x64) AppleWebKit/537.36 (KHTML, like Gecko) draw.io/21.5.1 Chrome/112.0.5615.204 Electron/24.6.0 Safari/537.36" etag="G1IEYK23I8F806YKfhzV" version="21.5.1" type="device">
  <diagram name="Page-1" id="5KxrN0O_GUH_-jwwpVI0">
    <mxGraphModel dx="648" dy="693" grid="1" gridSize="10" guides="1" tooltips="1" connect="1" arrows="1" fold="1" page="1" pageScale="1" pageWidth="827" pageHeight="1169" math="0" shadow="0">
      <root>
        <mxCell id="0" />
        <mxCell id="1" parent="0" />
        <mxCell id="wEuMn6yE03sUONC7wXa--7" value="Digital Transformation" style="whiteSpace=wrap;html=1;aspect=fixed;fillColor=#ffe6cc;labelPosition=center;verticalLabelPosition=middle;align=center;verticalAlign=top;strokeColor=#d79b00;" vertex="1" parent="1">
          <mxGeometry x="210" y="140" width="260" height="260" as="geometry" />
        </mxCell>
        <mxCell id="wEuMn6yE03sUONC7wXa--6" value="Digitalization" style="whiteSpace=wrap;html=1;aspect=fixed;fillColor=#d5e8d4;labelPosition=center;verticalLabelPosition=middle;align=center;verticalAlign=top;strokeColor=#82b366;" vertex="1" parent="1">
          <mxGeometry x="210" y="240" width="160" height="160" as="geometry" />
        </mxCell>
        <mxCell id="wEuMn6yE03sUONC7wXa--1" value="" style="endArrow=classic;html=1;rounded=0;" edge="1" parent="1">
          <mxGeometry width="50" height="50" relative="1" as="geometry">
            <mxPoint x="210" y="400" as="sourcePoint" />
            <mxPoint x="490" y="400" as="targetPoint" />
          </mxGeometry>
        </mxCell>
        <mxCell id="wEuMn6yE03sUONC7wXa--2" value="" style="endArrow=classic;html=1;rounded=0;" edge="1" parent="1">
          <mxGeometry width="50" height="50" relative="1" as="geometry">
            <mxPoint x="210" y="400" as="sourcePoint" />
            <mxPoint x="210" y="120" as="targetPoint" />
          </mxGeometry>
        </mxCell>
        <mxCell id="wEuMn6yE03sUONC7wXa--5" value="Digitisation" style="whiteSpace=wrap;html=1;aspect=fixed;fillColor=#dae8fc;labelPosition=center;verticalLabelPosition=middle;align=center;verticalAlign=top;strokeColor=#6c8ebf;" vertex="1" parent="1">
          <mxGeometry x="210" y="320" width="80" height="80" as="geometry" />
        </mxCell>
        <mxCell id="wEuMn6yE03sUONC7wXa--8" value="Scope of Change" style="text;html=1;align=center;verticalAlign=middle;resizable=0;points=[];autosize=1;strokeColor=none;fillColor=none;" vertex="1" parent="1">
          <mxGeometry x="280" y="400" width="120" height="30" as="geometry" />
        </mxCell>
        <mxCell id="wEuMn6yE03sUONC7wXa--9" value="Technology Adoption" style="text;html=1;align=center;verticalAlign=middle;resizable=0;points=[];autosize=1;strokeColor=none;fillColor=none;rotation=-90;" vertex="1" parent="1">
          <mxGeometry x="130" y="240" width="130" height="30" as="geometry" />
        </mxCell>
      </root>
    </mxGraphModel>
  </diagram>
</mxfile>
